<?xml version="1.0" standalone="no"?>
<!DOCTYPE svg PUBLIC "-//W3C//DTD SVG 20010904//EN"
 "http://www.w3.org/TR/2001/REC-SVG-20010904/DTD/svg10.dtd">
<svg version="1.0" xmlns="http://www.w3.org/2000/svg"
 width="1024.000000pt" height="1024.000000pt" viewBox="0 0 1024.000000 1024.000000"
 preserveAspectRatio="xMidYMid meet">
<metadata>
Created by potrace 1.14, written by Peter Selinger 2001-2017
</metadata>
<g transform="translate(0.000000,1024.000000) scale(0.100000,-0.100000)"
fill="#000000" stroke="none">
<path d="M210 5125 l0 -1055 260 0 260 0 0 1055 0 1055 -260 0 -260 0 0 -1055z"/>
<path d="M2015 5759 c-134 -20 -260 -81 -347 -167 l-48 -46 0 102 0 102 -260
0 -260 0 0 -840 0 -840 260 0 259 0 3 513 3 512 33 67 c34 70 80 115 149 145
58 26 204 24 264 -4 61 -27 116 -84 148 -152 l26 -56 3 -512 3 -513 260 0 260
0 -3 573 c-4 552 -5 575 -26 650 -63 228 -226 397 -434 451 -74 19 -219 27
-293 15z"/>
<path d="M3717 5760 c-334 -60 -577 -277 -669 -595 -20 -70 -23 -102 -23 -260
0 -191 8 -240 59 -367 60 -149 182 -290 321 -372 165 -96 383 -140 588 -118
375 41 649 269 743 617 26 97 27 390 2 483 -67 242 -214 425 -423 528 -135 66
-222 86 -400 90 -82 1 -172 -1 -198 -6z m317 -474 c70 -34 138 -110 167 -184
27 -72 37 -238 19 -321 -37 -167 -170 -282 -328 -284 -100 -1 -165 24 -233 92
-76 76 -100 140 -107 285 -5 120 7 194 43 266 23 46 92 117 136 141 88 47 212
49 303 5z"/>
</g>
</svg>
