<svg width="986" height="225" viewBox="0 0 986 225" fill="none" xmlns="http://www.w3.org/2000/svg">
<g clip-path="url(#clip0_4601_90)">
<path d="M51.9001 11.4V222H0.600098V11.4H51.9001ZM191.077 52.8C210.677 52.8 226.277 59.2 237.877 72C249.677 84.6 255.577 102 255.577 124.2V222H204.577V131.1C204.577 119.9 201.677 111.2 195.877 105C190.077 98.8 182.277 95.7 172.477 95.7C162.677 95.7 154.877 98.8 149.077 105C143.277 111.2 140.377 119.9 140.377 131.1V222H89.0767V54.6H140.377V76.8C145.577 69.4 152.577 63.6 161.377 59.4C170.177 55 180.077 52.8 191.077 52.8ZM367.425 224.4C351.025 224.4 336.225 220.9 323.025 213.9C310.025 206.9 299.725 196.9 292.125 183.9C284.725 170.9 281.025 155.7 281.025 138.3C281.025 121.1 284.825 106 292.425 93C300.025 79.8 310.425 69.7 323.625 62.7C336.825 55.7 351.625 52.2 368.025 52.2C384.425 52.2 399.225 55.7 412.425 62.7C425.625 69.7 436.025 79.8 443.625 93C451.225 106 455.025 121.1 455.025 138.3C455.025 155.5 451.125 170.7 443.325 183.9C435.725 196.9 425.225 206.9 411.825 213.9C398.625 220.9 383.825 224.4 367.425 224.4ZM367.425 180C377.225 180 385.525 176.4 392.325 169.2C399.325 162 402.825 151.7 402.825 138.3C402.825 124.9 399.425 114.6 392.625 107.4C386.025 100.2 377.825 96.6 368.025 96.6C358.025 96.6 349.725 100.2 343.125 107.4C336.525 114.4 333.225 124.7 333.225 138.3C333.225 151.7 336.425 162 342.825 169.2C349.425 176.4 357.625 180 367.425 180Z" fill="#292929"/>
<path d="M514.041 199.8H587.241V222H486.741V12.9H514.041V199.8ZM606.033 139.2C606.033 122.4 609.433 107.7 616.233 95.1C623.033 82.3 632.333 72.4 644.133 65.4C656.133 58.4 669.433 54.9 684.033 54.9C698.433 54.9 710.933 58 721.533 64.2C732.133 70.4 740.033 78.2 745.233 87.6V57.6H772.833V222H745.233V191.4C739.833 201 731.733 209 720.933 215.4C710.333 221.6 697.933 224.7 683.733 224.7C669.133 224.7 655.933 221.1 644.133 213.9C632.333 206.7 623.033 196.6 616.233 183.6C609.433 170.6 606.033 155.8 606.033 139.2ZM745.233 139.5C745.233 127.1 742.733 116.3 737.733 107.1C732.733 97.9 725.933 90.9 717.333 86.1C708.933 81.1 699.633 78.6 689.433 78.6C679.233 78.6 669.933 81 661.533 85.8C653.133 90.6 646.433 97.6 641.433 106.8C636.433 116 633.933 126.8 633.933 139.2C633.933 151.8 636.433 162.8 641.433 172.2C646.433 181.4 653.133 188.5 661.533 193.5C669.933 198.3 679.233 200.7 689.433 200.7C699.633 200.7 708.933 198.3 717.333 193.5C725.933 188.5 732.733 181.4 737.733 172.2C742.733 162.8 745.233 151.9 745.233 139.5ZM846.267 88.2C851.867 78.4 860.067 70.4 870.867 64.2C881.667 58 893.967 54.9 907.767 54.9C922.567 54.9 935.867 58.4 947.667 65.4C959.467 72.4 968.767 82.3 975.567 95.1C982.367 107.7 985.767 122.4 985.767 139.2C985.767 155.8 982.367 170.6 975.567 183.6C968.767 196.6 959.367 206.7 947.367 213.9C935.567 221.1 922.367 224.7 907.767 224.7C893.567 224.7 881.067 221.6 870.267 215.4C859.667 209.2 851.667 201.3 846.267 191.7V222H818.967V0H846.267V88.2ZM957.867 139.2C957.867 126.8 955.367 116 950.367 106.8C945.367 97.6 938.567 90.6 929.967 85.8C921.567 81 912.267 78.6 902.067 78.6C892.067 78.6 882.767 81.1 874.167 86.1C865.767 90.9 858.967 98 853.767 107.4C848.767 116.6 846.267 127.3 846.267 139.5C846.267 151.9 848.767 162.8 853.767 172.2C858.967 181.4 865.767 188.5 874.167 193.5C882.767 198.3 892.067 200.7 902.067 200.7C912.267 200.7 921.567 198.3 929.967 193.5C938.567 188.5 945.367 181.4 950.367 172.2C955.367 162.8 957.867 151.8 957.867 139.2Z" fill="white"/>
</g>
<defs>
<clipPath id="clip0_4601_90">
<rect width="986" height="225" fill="white"/>
</clipPath>
</defs>
</svg>
